<svg width="128" height="128" viewBox="0 0 128 128" fill="none" xmlns="http://www.w3.org/2000/svg">
<path fill-rule="evenodd" clip-rule="evenodd" d="M64 1.51221C40.507 1.51221 21.455 20.5592 21.455 44.0572C21.455 62.8542 33.645 78.8022 50.55 84.4272C52.676 84.8212 53.457 83.5042 53.457 82.3802C53.457 81.3662 53.417 78.0142 53.399 74.4602C41.562 77.0332 39.065 69.4402 39.065 69.4402C37.13 64.5222 34.341 63.2142 34.341 63.2142C30.481 60.5742 34.631 60.6282 34.631 60.6282C38.904 60.9282 41.154 65.0132 41.154 65.0132C44.948 71.5172 51.107 69.6362 53.534 68.5492C53.917 65.7992 55.019 63.9212 56.236 62.8592C46.786 61.7842 36.852 58.1352 36.852 41.8332C36.852 37.1882 38.514 33.3932 41.236 30.4132C40.794 29.3412 39.338 25.0132 41.648 19.1532C41.648 19.1532 45.22 18.0112 53.348 23.5162C56.743 22.5732 60.383 22.1002 63.998 22.0842C67.614 22.1012 71.256 22.5742 74.656 23.5162C82.776 18.0122 86.344 19.1542 86.344 19.1542C88.66 25.0142 87.204 29.3412 86.762 30.4142C89.49 33.3922 91.14 37.1882 91.14 41.8342C91.14 58.1742 81.187 61.7722 71.713 62.8242C73.239 64.1442 74.599 66.7342 74.599 70.7042C74.599 76.3962 74.551 80.9772 74.551 82.3782C74.551 83.5082 75.317 84.8362 77.473 84.4182C94.369 78.7862 106.543 62.8442 106.543 44.0532C106.545 20.5602 87.497 1.51221 64 1.51221Z" fill="white"/>
<path d="M37.57 62.5964C37.475 62.8084 37.142 62.8714 36.84 62.7264C36.53 62.5864 36.358 62.2994 36.458 62.0864C36.548 61.8704 36.882 61.8094 37.191 61.9544C37.501 62.0944 37.677 62.3844 37.571 62.5964H37.57ZM39.293 64.5204C39.09 64.7074 38.693 64.6204 38.423 64.3224C38.145 64.0254 38.093 63.6284 38.299 63.4384C38.507 63.2504 38.892 63.3384 39.169 63.6354C39.449 63.9354 39.504 64.3284 39.292 64.5194L39.293 64.5204ZM40.97 66.9684C40.71 67.1504 40.283 66.9804 40.02 66.6014C39.758 66.2244 39.758 65.7714 40.025 65.5884C40.289 65.4064 40.709 65.5704 40.975 65.9454C41.237 66.3304 41.237 66.7854 40.97 66.9694V66.9684ZM43.268 69.3364C43.035 69.5934 42.538 69.5244 42.175 69.1734C41.803 68.8304 41.7 68.3434 41.933 68.0864C42.17 67.8294 42.669 67.9014 43.035 68.2494C43.405 68.5914 43.517 69.0794 43.268 69.3354V69.3364ZM46.44 70.7104C46.336 71.0444 45.858 71.1954 45.376 71.0544C44.894 70.9084 44.58 70.5184 44.676 70.1824C44.776 69.8464 45.258 69.6894 45.743 69.8404C46.223 69.9844 46.538 70.3704 46.439 70.7104H46.44ZM49.92 70.9654C49.933 71.3154 49.524 71.6074 49.018 71.6134C48.51 71.6254 48.098 71.3414 48.092 70.9954C48.092 70.6414 48.492 70.3534 49 70.3454C49.506 70.3354 49.92 70.6174 49.92 70.9654ZM53.16 70.4144C53.22 70.7564 52.87 71.1084 52.367 71.2014C51.873 71.2934 51.417 71.0814 51.353 70.7414C51.293 70.3914 51.65 70.0414 52.143 69.9494C52.646 69.8614 53.096 70.0674 53.16 70.4154V70.4144Z" fill="white"/>
<path d="M24.855 108.302H14.155C14.0224 108.302 13.8952 108.355 13.8014 108.448C13.7077 108.542 13.655 108.669 13.655 108.802V114.034C13.655 114.167 13.7077 114.294 13.8014 114.388C13.8952 114.481 14.0224 114.534 14.155 114.534H18.328V121.034C18.328 121.034 17.391 121.354 14.798 121.354C11.742 121.354 7.471 120.238 7.471 110.846C7.471 101.453 11.919 100.216 16.095 100.216C19.709 100.216 21.265 100.852 22.257 101.159C22.567 101.253 22.857 100.943 22.857 100.667L24.05 95.612C24.0519 95.5363 24.0355 95.4613 24.002 95.3934C23.9686 95.3254 23.9192 95.2666 23.858 95.222C23.455 94.934 21.001 93.562 14.8 93.562C7.656 93.562 0.328003 96.6 0.328003 111.212C0.328003 125.822 8.718 127.999 15.788 127.999C21.642 127.999 25.193 125.497 25.193 125.497C25.339 125.417 25.355 125.212 25.355 125.117V108.801C25.355 108.668 25.3023 108.541 25.2086 108.447C25.1148 108.354 24.9876 108.301 24.855 108.301V108.302ZM79.506 94.81H73.48C73.4143 94.8103 73.3492 94.8235 73.2886 94.8489C73.2279 94.8744 73.1729 94.9115 73.1267 94.9582C73.0804 95.005 73.0438 95.0603 73.019 95.1212C72.9942 95.1821 72.9816 95.2473 72.982 95.313L72.984 106.957H63.592V95.313C63.5924 95.2474 63.5799 95.1823 63.5551 95.1214C63.5303 95.0606 63.4938 95.0053 63.4477 94.9586C63.4015 94.9119 63.3466 94.8747 63.2861 94.8492C63.2256 94.8237 63.1607 94.8104 63.095 94.81H57.07C57.0043 94.8103 56.9392 94.8235 56.8786 94.8489C56.818 94.8744 56.7629 94.9115 56.7167 94.9582C56.6704 95.005 56.6338 95.0603 56.609 95.1212C56.5842 95.1821 56.5716 95.2473 56.572 95.313V126.843C56.572 127.12 56.796 127.346 57.07 127.346H63.095C63.1608 127.346 63.2258 127.332 63.2864 127.307C63.3469 127.281 63.4019 127.244 63.448 127.197C63.4942 127.15 63.5307 127.095 63.5554 127.034C63.5801 126.973 63.5925 126.908 63.592 126.842V113.356H72.984L72.968 126.842C72.968 127.12 73.192 127.346 73.468 127.346H79.506C79.5717 127.346 79.6368 127.332 79.6973 127.307C79.7579 127.281 79.8129 127.244 79.859 127.197C79.9052 127.15 79.9417 127.095 79.9664 127.034C79.9911 126.973 80.0035 126.908 80.003 126.842V95.312C80.0037 95.2463 79.9913 95.1812 79.9666 95.1203C79.9419 95.0594 79.9054 95.004 79.8592 94.9573C79.813 94.9107 79.758 94.8736 79.6974 94.8483C79.6367 94.823 79.5717 94.81 79.506 94.81V94.81ZM32.34 95.527C30.196 95.527 28.456 97.28 28.456 99.45C28.456 101.617 30.196 103.375 32.34 103.375C34.486 103.375 36.225 101.617 36.225 99.45C36.225 97.28 34.485 95.527 32.34 95.527ZM35.296 105.135H29.29C29.014 105.135 28.768 105.419 28.768 105.695V126.547C28.768 127.16 29.15 127.342 29.644 127.342H35.054C35.649 127.342 35.794 127.05 35.794 126.537V105.638C35.7943 105.572 35.7816 105.507 35.7567 105.447C35.7318 105.386 35.6952 105.33 35.649 105.284C35.6027 105.237 35.5478 105.2 35.4872 105.175C35.4266 105.149 35.3617 105.136 35.296 105.136V105.135ZM102.902 105.182H96.922C96.8563 105.183 96.7914 105.196 96.731 105.222C96.6705 105.247 96.6157 105.284 96.5696 105.331C96.5236 105.378 96.4872 105.434 96.4625 105.494C96.4379 105.555 96.4255 105.62 96.426 105.686V121.146C96.426 121.146 94.906 122.256 92.751 122.256C90.596 122.256 90.024 121.279 90.024 119.168V105.686C90.0245 105.62 90.0121 105.555 89.9874 105.494C89.9627 105.433 89.9262 105.378 89.88 105.331C89.8339 105.284 89.7789 105.247 89.7183 105.221C89.6578 105.196 89.5927 105.182 89.527 105.182H83.459C83.3262 105.183 83.1992 105.237 83.1059 105.331C83.0126 105.426 82.9605 105.553 82.961 105.686V120.188C82.961 126.458 86.456 127.992 91.263 127.992C95.207 127.992 98.387 125.812 98.387 125.812C98.387 125.812 98.537 126.962 98.607 127.097C98.677 127.233 98.854 127.37 99.047 127.37L102.907 127.353C102.973 127.353 103.038 127.34 103.099 127.314C103.16 127.289 103.215 127.251 103.261 127.205C103.308 127.158 103.345 127.102 103.37 127.041C103.395 126.98 103.407 126.915 103.407 126.849L103.404 105.683C103.403 105.55 103.351 105.423 103.257 105.329C103.163 105.235 103.037 105.182 102.904 105.181L102.902 105.182ZM119.244 104.474C115.848 104.474 113.538 105.989 113.538 105.989V95.312C113.538 95.2464 113.526 95.1813 113.501 95.1204C113.476 95.0596 113.44 95.0043 113.394 94.9576C113.348 94.9109 113.293 94.8737 113.232 94.8482C113.172 94.8227 113.107 94.8094 113.041 94.809H107C106.934 94.809 106.869 94.822 106.808 94.8474C106.747 94.8727 106.692 94.9098 106.645 94.9565C106.599 95.0033 106.562 95.0587 106.537 95.1198C106.512 95.1808 106.5 95.2461 106.5 95.312V126.842C106.5 126.908 106.512 126.973 106.537 127.034C106.562 127.095 106.599 127.151 106.645 127.198C106.692 127.244 106.747 127.281 106.808 127.307C106.869 127.332 106.934 127.345 107 127.345H111.192C111.382 127.345 111.524 127.248 111.629 127.077C111.732 126.907 111.883 125.623 111.883 125.623C111.883 125.623 114.353 127.963 119.031 127.963C124.521 127.963 127.671 125.179 127.671 115.461C127.671 105.743 122.641 104.473 119.243 104.473L119.244 104.474ZM116.884 122.238C114.811 122.175 113.404 121.234 113.404 121.234V111.249C113.404 111.249 114.792 110.399 116.494 110.245C118.647 110.052 120.722 110.703 120.722 115.839C120.722 121.256 119.787 122.325 116.885 122.237L116.884 122.238ZM53.195 122.12C52.932 122.12 52.258 122.227 51.565 122.227C49.345 122.227 48.592 121.195 48.592 119.859V110.993H53.112C53.178 110.993 53.2434 110.98 53.3043 110.955C53.3652 110.929 53.4205 110.892 53.467 110.845C53.5135 110.798 53.5502 110.743 53.5751 110.682C53.6 110.62 53.6125 110.555 53.612 110.489V105.633C53.6123 105.567 53.5995 105.502 53.5745 105.441C53.5495 105.38 53.5127 105.325 53.4663 105.278C53.4198 105.232 53.3646 105.195 53.3038 105.169C53.243 105.144 53.1778 105.131 53.112 105.131H48.592L48.585 99.161C48.585 98.934 48.469 98.821 48.207 98.821H42.047C41.809 98.821 41.68 98.927 41.68 99.156V105.326C41.68 105.326 38.593 106.071 38.385 106.131C38.2811 106.161 38.1899 106.224 38.125 106.311C38.0601 106.398 38.025 106.503 38.025 106.611V110.488C38.0246 110.554 38.0371 110.619 38.0619 110.68C38.0867 110.74 38.1232 110.796 38.1693 110.842C38.2155 110.889 38.2704 110.926 38.3309 110.952C38.3914 110.977 38.4563 110.991 38.522 110.991H41.68V120.319C41.68 127.249 46.54 127.929 49.82 127.929C51.317 127.929 53.11 127.449 53.406 127.339C53.586 127.272 53.689 127.087 53.689 126.886L53.693 122.621C53.691 122.489 53.6377 122.363 53.5444 122.269C53.4511 122.175 53.3252 122.122 53.193 122.119L53.195 122.12Z" fill="#100E0F"/>
</svg>
