<svg width="128" height="128" viewBox="0 0 128 128" fill="none" xmlns="http://www.w3.org/2000/svg">
<path d="M47.617 98.1199C28.425 103.482 59.294 114.559 83.732 104.089C79.729 102.533 76.858 100.738 76.858 100.738C65.961 102.798 60.906 102.96 51.014 101.83C42.85 100.895 47.617 98.1199 47.617 98.1199V98.1199ZM80.806 87.6599C66.362 90.4389 58.019 90.3499 47.452 89.2599C39.281 88.4149 44.63 84.4549 44.63 84.4549C23.493 91.4709 56.397 99.4319 85.939 90.7909C82.799 89.6849 80.806 87.6599 80.806 87.6599V87.6599ZM92.125 27.0849C92.126 27.0849 49.394 37.7539 69.802 61.2719C75.826 68.2069 68.222 74.4419 68.222 74.4419C68.222 74.4419 83.511 66.5509 76.491 56.6649C69.932 47.4499 64.904 42.8719 92.125 27.0849ZM102.123 108.229C102.123 108.229 105.652 111.139 98.235 113.388C84.133 117.66 39.529 118.948 27.14 113.559C22.69 111.621 31.039 108.934 33.666 108.367C36.405 107.774 37.969 107.882 37.969 107.882C33.017 104.395 5.95599 114.732 24.227 117.697C74.048 125.773 115.044 114.06 102.123 108.229V108.229ZM85 77.8959C87.395 76.2619 90.703 74.8429 90.703 74.8429C90.703 74.8429 81.279 76.5279 71.89 77.3169C60.396 78.2809 48.067 78.4709 41.878 77.6429C27.226 75.6839 49.911 70.2949 49.911 70.2949C49.911 70.2949 41.099 69.6989 30.267 74.9389C17.455 81.1339 61.958 83.9579 85 77.8959ZM90.609 93.0409C90.501 93.3309 90.141 93.6569 90.141 93.6569C121.414 85.4359 109.916 64.6779 94.963 69.9319C93.651 70.3959 92.963 71.4749 92.963 71.4749C92.963 71.4749 93.792 71.1409 95.641 70.7549C103.2 69.1799 114.03 80.8739 90.609 93.0409ZM64.181 70.0689C59.567 59.6399 43.921 50.5159 64.188 34.5099C89.459 14.5629 76.492 1.58691 76.492 1.58691C81.722 22.1949 58.041 28.4199 49.493 41.2539C43.672 49.9989 52.35 59.3959 64.181 70.0689V70.0689ZM91.455 121.817C72.268 125.429 48.601 125.008 34.568 122.691C34.568 122.691 37.442 125.071 52.214 126.022C74.69 127.459 109.214 125.222 110.03 114.586C110.031 114.586 108.46 118.618 91.455 121.817Z" fill="#EA2D2E"/>
</svg>
