<svg width="128" height="128" viewBox="0 0 128 128" fill="none" xmlns="http://www.w3.org/2000/svg">
<path d="M124.129 63.0198C124.129 55.3278 118.301 48.8548 110.477 47.0078L128 0.112793H41.16L58.723 47.1558C51.145 49.1518 45.559 55.5118 45.559 63.0588C45.559 68.6048 48.617 73.5228 53.262 76.5548C51.43 78.9218 49.309 81.1048 46.906 83.1748C42.383 87.0228 37.367 89.9798 31.949 91.9408C27.059 88.9448 24.941 83.6558 26.855 78.9208C34.312 76.8508 39.735 70.5268 39.735 63.0938C39.735 53.9608 31.543 46.5618 21.515 46.5618C11.449 46.5618 3.26198 53.9958 3.26198 63.1318C3.26198 67.6448 5.29698 71.7848 8.55898 74.7418C8.27298 75.2618 7.98898 75.7768 7.70298 76.3318C4.97298 81.4378 1.87498 87.2068 0.690984 93.6798C-1.67202 106.621 2.19899 117.016 11.531 122.895C16.789 126.188 22.578 127.852 28.813 127.852C39.527 127.852 50.41 122.969 60.922 118.234C68.422 114.871 76.164 111.355 83.785 109.656C86.598 109.027 89.531 108.656 92.629 108.25C98.902 107.437 105.383 106.586 111.211 103.516C118.016 99.9298 122.661 93.9368 124.008 87.0588C125.023 81.7688 124.008 76.4448 121.398 71.7848C123.181 69.21 124.133 66.1515 124.128 63.0198H124.129ZM116.184 63.0198C116.184 68.1598 111.578 72.3398 105.914 72.3398C100.25 72.3398 95.644 68.1598 95.644 63.0198C95.644 61.3548 96.133 59.7658 96.988 58.3978C97.313 57.8778 97.723 57.3628 98.128 56.9178C98.5573 56.4601 99.0359 56.0513 99.555 55.6988L99.598 55.6598C99.922 55.4378 100.289 55.2148 100.656 54.9958C100.656 54.9958 100.696 54.9958 100.696 54.9568C100.859 54.8828 101.023 54.7728 101.188 54.6988C101.227 54.6988 101.266 54.6598 101.308 54.6598C101.473 54.5898 101.676 54.5158 101.878 54.4408C102.071 54.3735 102.261 54.2994 102.449 54.2188C102.489 54.2188 102.531 54.1788 102.57 54.1788C102.734 54.1448 102.898 54.0698 103.059 54.0348C103.102 54.0348 103.184 53.9958 103.223 53.9958C103.426 53.9608 103.59 53.9218 103.793 53.8858H103.836L104.446 53.7728C104.488 53.7728 104.566 53.7728 104.609 53.7378C104.773 53.7378 104.934 53.6988 105.098 53.6988H105.301C105.504 53.6988 105.711 53.6638 105.953 53.6638H106.484C106.644 53.6638 106.77 53.6638 106.93 53.6988H107.012C107.34 53.7388 107.664 53.7728 107.992 53.8478C112.637 54.7338 116.184 58.5078 116.184 63.0198V63.0198ZM52.527 7.50779H116.629L101.918 46.8948C101.308 47.0078 100.695 47.1908 100.086 47.3748L84.602 18.7148L69.074 47.1898C68.461 47.0068 67.809 46.8938 67.16 46.7838L52.527 7.50779ZM81.664 59.7998C80.891 56.3228 78.934 53.2178 76.164 50.9248L84.602 35.4678L93.117 51.2568C90.59 53.5498 88.757 56.4718 88.023 59.7998H81.664ZM61.25 53.9598C61.453 53.9198 61.617 53.8858 61.82 53.8468H61.941C62.105 53.8118 62.27 53.8118 62.43 53.7718H62.594C62.758 53.7718 62.879 53.7368 63.043 53.7368H64.633C64.793 53.7368 64.918 53.7718 65.039 53.7718C65.121 53.7718 65.16 53.7718 65.242 53.8118C65.406 53.8468 65.527 53.8468 65.692 53.8858C65.73 53.8858 65.773 53.8858 65.855 53.9208C66.059 53.9598 66.262 53.9948 66.425 54.0338H66.465C66.629 54.0688 66.793 54.1038 66.953 54.1788C66.996 54.1788 67.035 54.2178 67.117 54.2178C67.238 54.2528 67.402 54.2918 67.523 54.3658C67.566 54.3658 67.605 54.4008 67.648 54.4008C67.808 54.4758 67.973 54.5148 68.137 54.5888H68.176C68.379 54.6588 68.543 54.7328 68.707 54.8468H68.747C68.91 54.9208 69.074 55.0298 69.238 55.1038C69.278 55.1038 69.278 55.1438 69.316 55.1438C69.48 55.2138 69.602 55.3268 69.766 55.4008L69.809 55.4358C70.297 55.7688 70.746 56.1398 71.191 56.5108L71.234 56.5458C71.641 56.9518 72.047 57.3968 72.375 57.8778C73.434 59.3578 74.047 61.0968 74.047 62.9828C74.047 68.1238 69.441 72.2998 63.777 72.2998C58.113 72.2998 53.507 68.1238 53.507 62.9828C53.465 58.6548 56.766 54.9948 61.25 53.9598V53.9598ZM21.148 53.6978C26.813 53.6978 31.418 57.8778 31.418 63.0178C31.418 68.1588 26.813 72.3378 21.148 72.3378C15.484 72.3378 10.878 68.1588 10.878 63.0178C10.878 57.8778 15.484 53.6978 21.148 53.6978V53.6978ZM115.938 85.7648C115.043 90.4948 111.82 94.6398 107.094 97.1158C102.652 99.4478 97.191 100.186 91.445 100.925C88.309 101.331 85.008 101.776 81.828 102.479C73.352 104.366 65.203 108.065 57.297 111.612C47.191 116.163 37.652 120.452 28.813 120.452C24.207 120.452 20.09 119.269 16.18 116.792C7.21498 111.171 7.65998 100.632 8.72298 94.8618C9.69898 89.4598 12.43 84.3938 15.039 79.5498C15.199 79.2528 15.324 78.9948 15.484 78.6978C16.383 78.9948 17.32 79.2178 18.297 79.3658C16.75 87.2058 21.148 95.3038 29.707 99.2998L31.257 100.038L32.926 99.4828C40.059 97.1898 46.66 93.4558 52.488 88.4628C55.789 85.6508 58.602 82.6198 60.965 79.3268C61.902 79.4758 62.84 79.5148 63.777 79.5148C72.254 79.5148 79.383 74.2248 81.422 67.1238H88.266C90.305 74.2608 97.437 79.5138 105.914 79.5138C109.297 79.5138 112.434 78.6638 115.121 77.2218C116.184 79.9948 116.508 82.8778 115.938 85.7648V85.7648Z" fill="#99425B"/>
</svg>
