<svg width="128" height="128" viewBox="0 0 128 128" fill="none" xmlns="http://www.w3.org/2000/svg">
<path fill-rule="evenodd" clip-rule="evenodd" d="M126.216 0.727281C89.993 0.716281 53.932 0.717281 17.708 0.717281C12.527 0.717281 7.257 0.713281 2.076 0.728281C1.748 0.729281 1 0.881281 1 0.964281V127H127V0.964281C127 0.881281 126.586 0.727281 126.216 0.727281ZM113.48 114.666C80.839 114.628 48.209 114.636 15.568 114.636C13.992 114.636 13.999 114.633 13.999 113.009V15.2123C14 13.6053 13.984 14.0003 15.577 14.0003H113.375C115.013 14.0003 115 13.6043 115 15.2913V64.1283C115 80.4483 114.993 96.7683 115.036 113.087C115.04 114.33 114.747 114.667 113.48 114.666ZM56.82 39.6443C50.152 38.0813 43.44 38.8523 36.735 39.5373C35.312 39.6833 35.04 40.2923 35.044 41.5553C35.087 56.7623 35 71.9693 35 87.1763V88.0003H44V70.1393C49 70.5143 53.576 70.4253 58.049 68.8293C65.218 66.2713 68.801 60.7183 68.414 52.6103C68.101 46.0623 63.988 41.3243 56.82 39.6443V39.6443ZM54.867 61.9883C51.673 63.5453 48.277 63.5083 44.862 63.0463C44.596 63.0103 44.187 62.5353 44.185 62.2623C44.145 56.9313 44.155 51.6013 44.155 46.1243C47.286 45.6363 50.255 45.3983 53.217 46.1423C56.89 47.0653 59.021 49.4613 59.418 53.0593C59.854 57.0133 58.171 60.3783 54.867 61.9883V61.9883ZM88.168 69.0943C86.699 68.2893 85.088 67.7473 83.562 67.0413C82.152 66.3883 80.729 65.7453 79.388 64.9653C78.453 64.4223 78.028 63.4733 78.028 62.3543C78.028 60.4623 79.322 58.9373 81.532 58.7563C83.181 58.6213 84.893 58.7913 86.526 59.0963C87.902 59.3523 89.207 59.9953 90.608 60.4913L92.375 54.2223C89.03 52.5983 85.626 51.9873 82.09 52.1123C79.084 52.2173 76.276 52.9833 73.738 54.7113C68.995 57.9403 66.681 66.5183 73.789 71.1273C75.594 72.2983 77.682 73.0323 79.64 73.9683C80.858 74.5513 82.129 75.0473 83.281 75.7403C84.733 76.6143 85.227 78.0373 84.975 79.6803C84.728 81.2953 83.645 82.3183 82.139 82.5543C80.459 82.8183 78.673 82.9893 77.021 82.6983C74.682 82.2873 72.422 81.4173 70.047 80.7193C69.621 82.3093 69.216 84.0683 68.663 85.7793C68.36 86.7173 68.538 87.1803 69.458 87.5473C75.075 89.7783 80.792 90.2373 86.54 88.2643C90.836 86.7893 93.455 83.7403 93.796 79.0953C94.128 74.5683 92.088 71.2443 88.168 69.0943V69.0943Z" fill="#80B5E2"/>
</svg>
