<svg width="128" height="128" viewBox="0 0 128 128" fill="none" xmlns="http://www.w3.org/2000/svg">
<path d="M49.33 61.9995H78.489C86.606 61.9995 93 55.1315 93 46.9805V19.1825C93 11.2705 86.368 5.32652 78.445 4.00652C73.431 3.17152 68.25 2.79152 63.258 2.81552C58.268 2.83852 53.646 3.26352 49.453 4.00652C37.098 6.18752 35 10.7575 35 19.1825V29.9995H64V33.9995H23.776C15.292 33.9995 7.86202 39.1075 5.53902 48.8105C2.85802 59.9305 2.73902 66.7295 5.53902 78.3405C7.61402 86.9825 12.569 92.9995 21.054 92.9995H31V79.9515C31 70.3145 39.428 61.9995 49.33 61.9995ZM47.492 22.8895C44.466 22.8895 42.014 20.4105 42.014 17.3445C42.014 14.2655 44.465 11.7635 47.492 11.7635C50.507 11.7635 52.971 14.2655 52.971 17.3445C52.97 20.4105 50.506 22.8895 47.492 22.8895ZM122.281 48.8105C120.183 40.3625 116.178 33.9995 107.682 33.9995H97V46.9805C97 57.0305 88.206 64.9995 78.489 64.9995H49.33C41.342 64.9995 35 72.3255 35 80.3255V108.126C35 116.036 41.745 120.69 49.462 122.96C58.704 125.677 67.456 126.168 78.513 122.96C85.862 120.831 93 116.549 93 108.126V96.9995H64V92.9995H107.682C116.166 92.9995 119.329 87.2235 122.281 78.3395C125.328 69.1945 125.197 60.5405 122.281 48.8105ZM80.326 104.417C83.353 104.417 85.805 106.896 85.805 109.964C85.805 113.04 83.354 115.543 80.326 115.543C77.311 115.543 74.848 113.041 74.848 109.964C74.848 106.896 77.311 104.417 80.326 104.417Z" fill="white"/>
</svg>
