<svg width="128" height="128" viewBox="0 0 128 128" fill="none" xmlns="http://www.w3.org/2000/svg">
<path d="M64.004 25.6016C46.937 25.6016 36.274 34.1316 32.004 51.1986C38.402 42.6676 45.871 39.4686 54.402 41.6016C59.273 42.8156 62.754 46.3476 66.609 50.2616C72.883 56.6286 80.145 63.9996 96.004 63.9996C113.07 63.9996 123.734 55.4686 128.004 38.3976C121.605 46.9336 114.137 50.1326 105.605 47.9996C100.735 46.7846 97.258 43.2536 93.398 39.3396C87.128 32.9726 79.868 25.6016 64.004 25.6016V25.6016ZM32.004 63.9996C14.938 63.9996 4.27403 72.5306 0.00402832 89.6016C6.40203 81.0656 13.87 77.8666 22.402 79.9996C27.273 81.2146 30.754 84.7456 34.609 88.6596C40.883 95.0266 48.145 102.398 64.004 102.398C81.07 102.398 91.734 93.8676 96.004 76.8006C89.605 85.3316 82.137 88.5306 73.605 86.3976C68.735 85.1836 65.258 81.6516 61.398 77.7376C55.128 71.3706 47.868 63.9996 32.004 63.9996Z" fill="#38B2AC"/>
</svg>
