<svg width="128" height="128" viewBox="0 0 128 128" fill="none" xmlns="http://www.w3.org/2000/svg">
<path d="M16.219 15.7619C16.0495 15.7649 15.8828 15.8061 15.7314 15.8823C15.5799 15.9586 15.4476 16.068 15.3442 16.2024C15.2409 16.3368 15.1691 16.4927 15.1343 16.6587C15.0994 16.8246 15.1024 16.9962 15.143 17.1609L39.537 115.903C39.5843 116.095 39.6816 116.272 39.8189 116.415C39.9563 116.558 40.1289 116.663 40.3193 116.718C40.5098 116.773 40.7114 116.777 40.9039 116.729C41.0965 116.682 41.2731 116.584 41.416 116.447L114.802 45.8569C114.945 45.7195 115.049 45.5468 115.104 45.3563C115.159 45.1658 115.163 44.9641 115.116 44.7716C115.068 44.5791 114.97 44.4025 114.833 44.2597C114.695 44.1168 114.523 44.0127 114.332 43.9579L16.55 15.8059C16.4424 15.7749 16.3309 15.76 16.219 15.7619V15.7619ZM17.803 18.5159L111.827 45.5859L41.261 113.463L17.803 18.5159V18.5159Z" fill="white"/>
<path d="M65.137 29.8401C64.9883 29.8369 64.8406 29.8631 64.7021 29.9171C64.5636 29.9712 64.4371 30.0521 64.33 30.1551L27.654 65.4601C27.5112 65.5976 27.4072 65.7703 27.3524 65.9607C27.2975 66.1512 27.2938 66.3527 27.3415 66.5451C27.3893 66.7374 27.4868 66.9138 27.6243 67.0566C27.7618 67.1993 27.9345 67.3033 28.125 67.3581L76.984 81.4401C77.1743 81.495 77.3757 81.4988 77.568 81.4513C77.7602 81.4037 77.9366 81.3064 78.0794 81.1691C78.2221 81.0318 78.3263 80.8593 78.3813 80.6691C78.4364 80.4788 78.4404 80.2774 78.393 80.0851L66.21 30.6981C66.1504 30.457 66.013 30.2422 65.819 30.0871C65.625 29.932 65.3853 29.8452 65.137 29.8401V29.8401ZM64.486 33.1401L75.734 78.7301L30.63 65.7301L64.486 33.1401Z" fill="white"/>
<path d="M46.914 47.3126C46.7445 47.3157 46.5778 47.3569 46.4264 47.4331C46.2749 47.5094 46.1426 47.6188 46.0393 47.7532C45.9359 47.8876 45.8641 48.0435 45.8293 48.2094C45.7944 48.3754 45.7974 48.547 45.838 48.7117L51.892 73.2426C51.9394 73.4353 52.0367 73.6121 52.1742 73.7552C52.3116 73.8982 52.4844 74.0026 52.675 74.0576C52.8656 74.1127 53.0674 74.1165 53.26 74.0688C53.4526 74.021 53.6292 73.9234 53.772 73.7857L71.994 56.2226C72.1367 56.0851 72.2407 55.9123 72.2955 55.7218C72.3503 55.5313 72.3539 55.3297 72.3061 55.1373C72.2582 54.945 72.1606 54.7686 72.0229 54.6259C71.8853 54.4833 71.7125 54.3794 71.522 54.3247L47.245 47.3566C47.1374 47.3257 47.0259 47.3108 46.914 47.3126V47.3126ZM48.497 50.0636L69.019 55.9536L53.614 70.7997L48.497 50.0636V50.0636Z" fill="white"/>
<path d="M40.902 22.8091C40.7533 22.806 40.6054 22.8324 40.467 22.8866C40.3285 22.9408 40.2021 23.0219 40.095 23.1251L21.873 40.6871C21.7303 40.8247 21.6263 40.9974 21.5715 41.1879C21.5167 41.3784 21.5131 41.58 21.5609 41.7724C21.6087 41.9648 21.7064 42.1412 21.844 42.2838C21.9817 42.4265 22.1544 42.5304 22.345 42.5851L46.618 49.5541C46.8083 49.6088 47.0097 49.6125 47.202 49.5648C47.3942 49.5171 47.5705 49.4197 47.7132 49.2823C47.8558 49.1449 47.9598 48.9724 48.0147 48.7821C48.0696 48.5918 48.0735 48.3904 48.026 48.1981L41.975 23.6681C41.9158 23.4266 41.7785 23.2114 41.5845 23.0559C41.3905 22.9004 41.1506 22.8133 40.902 22.8081V22.8091ZM40.252 26.1091L45.366 46.8451L24.849 40.9551L40.252 26.1081V26.1091ZM89.453 36.7931C89.3045 36.7902 89.1568 36.8166 89.0185 36.8708C88.8802 36.925 88.7539 37.006 88.647 37.1091L70.423 54.6701C70.28 54.8077 70.1758 54.9805 70.1209 55.1711C70.0659 55.3617 70.0622 55.5635 70.1101 55.756C70.1579 55.9486 70.2557 56.1251 70.3935 56.2679C70.5313 56.4106 70.7042 56.5145 70.895 56.5691L95.169 63.5371C95.3593 63.5918 95.5607 63.5955 95.753 63.5478C95.9452 63.5001 96.1215 63.4027 96.2642 63.2653C96.4068 63.1279 96.5108 62.9554 96.5657 62.7651C96.6206 62.5748 96.6245 62.3734 96.577 62.1811L90.527 37.6511C90.4676 37.4096 90.3301 37.1945 90.1359 37.0392C89.9417 36.8839 89.7016 36.797 89.453 36.7921V36.7931ZM88.803 40.0931L93.917 60.8301L73.4 54.9401L88.803 40.0941V40.0931ZM52.944 71.8641C52.667 71.8747 52.4036 71.9868 52.204 72.1791L33.982 89.7421C33.8393 89.8797 33.7353 90.0524 33.6805 90.2429C33.6257 90.4335 33.6221 90.635 33.6699 90.8274C33.7177 91.0198 33.8154 91.1962 33.953 91.3388C34.0907 91.4815 34.2634 91.5854 34.454 91.6401L58.732 98.6081C58.9222 98.6625 59.1233 98.666 59.3153 98.6183C59.5073 98.5705 59.6833 98.4731 59.8258 98.3359C59.9683 98.1987 60.0722 98.0264 60.1272 97.8364C60.1822 97.6463 60.1862 97.4452 60.139 97.2531L54.084 72.7221C54.0218 72.4697 53.8744 72.2465 53.6667 72.0902C53.459 71.9339 53.2037 71.854 52.944 71.8641V71.8641ZM52.362 75.1641L57.48 95.9011L36.958 90.0111L52.362 75.1651V75.1641Z" fill="white"/>
</svg>
