<svg width="128" height="128" viewBox="0 0 128 128" fill="none" xmlns="http://www.w3.org/2000/svg">
<path d="M2 63.9102V126.41H127V1.41016H2V63.9102ZM102.73 58.9102C105.724 59.6049 108.445 61.1708 110.55 63.4102C111.709 64.6166 112.716 65.9598 113.55 67.4102C113.55 67.5702 108.15 71.2202 104.86 73.2602C104.74 73.3402 104.26 72.8202 103.73 72.0302C103.129 70.9938 102.276 70.1265 101.25 69.5093C100.223 68.892 99.057 68.5448 97.86 68.5002C94.07 68.2402 91.63 70.2302 91.65 73.5002C91.6187 74.3143 91.8051 75.1221 92.19 75.8401C93.02 77.5701 94.57 78.6001 99.43 80.7001C108.38 84.5501 112.21 87.0901 114.59 90.7001C117.25 94.7001 117.84 101.16 116.04 105.94C114.04 111.14 109.14 114.67 102.21 115.84C99.0448 116.203 95.8468 116.169 92.69 115.74C87.8722 114.959 83.4279 112.665 80 109.19C78.85 107.92 76.61 104.61 76.75 104.37C77.1151 104.099 77.4994 103.855 77.9 103.64L82.5 101L86.09 98.9202L86.84 100.03C88.1057 101.841 89.7166 103.384 91.58 104.57C95.58 106.67 101.04 106.38 103.74 103.95C104.647 103.06 105.212 101.88 105.338 100.615C105.464 99.3507 105.143 98.0821 104.43 97.0302C103.43 95.6402 101.43 94.4702 95.84 92.0302C89.39 89.2502 86.61 87.5302 84.07 84.7902C82.4843 82.982 81.3136 80.8488 80.64 78.5402C80.1375 75.9026 80.0633 73.2013 80.42 70.5402C81.75 64.3102 86.42 59.9602 93.24 58.6702C96.3984 58.2794 99.5977 58.367 102.73 58.9302V58.9102ZM73.39 64.1502V69.2701H57.16V115.5H45.65V69.2602H29.38V64.2602C29.3363 62.5389 29.3831 60.8165 29.52 59.1002C29.58 59.0202 39.52 58.9802 51.52 59.0002H73.33L73.39 64.1502Z" fill="#007ACC"/>
</svg>
