<svg width="128" height="128" viewBox="0 0 128 128" fill="none" xmlns="http://www.w3.org/2000/svg">
<path d="M3.656 45.0428C3.656 45.0428 0.629 42.8518 4.266 39.9298L12.734 32.3358C12.734 32.3358 15.16 29.7768 17.723 32.0078L95.898 91.3358V119.786C95.898 119.786 95.859 124.254 90.141 123.762L3.656 45.0428Z" fill="white"/>
<path d="M23.809 63.3789L3.65599 81.7419C3.65599 81.7419 1.58599 83.2849 3.65599 86.0469L13.012 94.5739C13.012 94.5739 15.234 96.9689 18.52 94.2459L39.879 78.0079L23.809 63.3789ZM59.184 63.5309L96.137 35.2459L95.898 6.94893C95.898 6.94893 94.32 0.772934 89.055 3.98993L39.879 48.8509L59.184 63.5309Z" fill="white"/>
<path d="M90.14 123.797C92.285 126 94.887 125.277 94.887 125.277L123.684 111.055C127.371 108.535 126.855 105.41 126.855 105.41V20.4649C126.855 16.7299 123.043 15.4409 123.043 15.4409L98.082 3.37994C92.629 0.000936508 89.055 3.98994 89.055 3.98994C89.055 3.98994 93.648 0.672936 95.898 6.94994V119.267C95.898 120.04 95.734 120.797 95.406 121.481C94.75 122.813 93.32 124.051 89.902 123.532L90.14 123.797Z" fill="white"/>
</svg>
